<?xml version="1.0" encoding="UTF-8"?>
<svg xmlns="http://www.w3.org/2000/svg" xmlns:xlink="http://www.w3.org/1999/xlink" width="253pt" height="89pt" viewBox="0 0 253 89" version="1.1">
<g id="surface1">
<path style=" stroke:none;fill-rule:evenodd;fill:rgb(0%,0%,0%);fill-opacity:1;" d="M 0.488281 0.617188 L 252.984375 0.617188 L 252.984375 88.117188 L 0.488281 88.117188 L 0.488281 0.617188 "/>
<path style=" stroke:none;fill-rule:evenodd;fill:rgb(96.875%,59.179688%,11.376953%);fill-opacity:1;" d="M 235.089844 13.304688 L 144.9375 13.304688 C 142.132813 13.621094 140.589844 15.335938 140.316406 18.464844 L 140.316406 70.273438 C 140.585938 73.398438 142.125 75.105469 144.910156 75.433594 L 235.109375 75.433594 C 237.894531 75.105469 239.433594 73.398438 239.703125 70.273438 L 239.703125 18.464844 C 239.433594 15.335938 237.890625 13.621094 235.089844 13.304688 "/>
<path style=" stroke:none;fill-rule:evenodd;fill:rgb(0%,0%,0%);fill-opacity:1;" d="M 230.574219 37.433594 C 229.046875 35.742188 226.988281 34.65625 224.753906 34.15625 C 224.109375 33.988281 223.378906 33.867188 222.5625 33.832031 C 219.601563 33.5625 215.800781 34.746094 214.03125 36.230469 L 214.460938 24.101563 L 207.261719 24.097656 L 207.261719 61.65625 L 213.949219 61.65625 L 213.949219 59.585938 C 218.765625 63.464844 226.339844 63.242188 230.511719 58.503906 C 232.722656 55.992188 233.828125 52.414063 233.828125 47.769531 C 233.828125 43.277344 232.742188 39.832031 230.574219 37.433594 Z M 224.773438 54.546875 C 223.65625 55.902344 222.300781 56.582031 220.714844 56.582031 C 218.644531 56.582031 216.988281 55.625 215.742188 53.710938 C 214.855469 52.363281 214.410156 50.28125 214.410156 47.460938 C 214.410156 44.730469 214.980469 42.695313 216.125 41.351563 C 217.269531 40.011719 218.703125 39.34375 220.429688 39.34375 C 222.1875 39.34375 223.632813 40.03125 224.757813 41.402344 C 225.886719 42.777344 226.449219 45.019531 226.449219 48.128906 C 226.449219 51.050781 225.890625 53.1875 224.773438 54.546875 Z M 195.660156 45.925781 C 195.660156 49.816406 195.484375 52.265625 195.125 53.265625 C 194.765625 54.261719 194.097656 55.101563 193.125 55.773438 C 192.152344 56.449219 191.050781 56.785156 189.820313 56.785156 C 188.746094 56.785156 187.855469 56.535156 187.15625 56.03125 C 186.457031 55.527344 185.972656 54.84375 185.710938 53.980469 C 185.445313 53.117188 185.3125 50.777344 185.3125 46.949219 L 185.3125 34.449219 L 178.117188 34.449219 L 178.117188 51.664063 C 178.117188 54.222656 178.4375 56.230469 179.089844 57.683594 C 179.738281 59.132813 180.785156 60.261719 182.238281 61.066406 C 183.691406 61.867188 185.328125 62.269531 187.15625 62.269531 C 190.632813 62.269531 193.789063 61.347656 196.175781 58.65625 L 196.175781 61.652344 L 202.859375 61.652344 L 202.859375 34.449219 L 195.660156 34.449219 Z M 169.164063 34.757813 C 165.554688 33.089844 159.066406 33.703125 156.355469 36.304688 L 156.355469 24.097656 L 149.160156 24.097656 L 149.160156 61.652344 L 156.355469 61.652344 L 156.355469 48.027344 C 156.355469 45.738281 156.574219 44.007813 157.011719 42.839844 C 157.445313 41.667969 158.132813 40.792969 159.074219 40.210938 C 160.011719 39.632813 161.078125 39.34375 162.277344 39.34375 C 163.316406 39.34375 164.183594 39.570313 164.875 40.019531 C 165.566406 40.472656 166.050781 41.085938 166.320313 41.851563 C 166.59375 42.621094 166.730469 44.429688 166.730469 47.28125 L 166.730469 61.652344 L 173.929688 61.652344 L 173.929688 45.695313 C 173.929688 43.253906 173.804688 41.449219 173.558594 40.289063 C 173.007813 37.691406 171.582031 35.875 169.164063 34.757813 "/>
<path style=" stroke:none;fill-rule:evenodd;fill:rgb(100%,100%,100%);fill-opacity:1;" d="M 130.109375 35.582031 C 129.398438 34.648438 128.351563 33.878906 126.96875 33.277344 C 125.585938 32.675781 124.058594 32.375 122.386719 32.375 C 119.359375 32.203125 114.441406 33.359375 112.957031 35.710938 L 112.957031 33.019531 L 105.925781 33.019531 L 105.925781 61.636719 L 113.496094 61.636719 L 113.496094 48.675781 C 113.496094 45.480469 113.6875 43.285156 114.074219 42.101563 C 114.460938 40.914063 115.175781 39.964844 116.21875 39.246094 C 117.257813 38.527344 118.4375 38.167969 119.746094 38.167969 C 120.769531 38.167969 121.644531 38.421875 122.375 38.921875 C 123.101563 39.425781 123.628906 40.128906 123.949219 41.035156 C 124.273438 41.945313 124.4375 43.941406 124.4375 47.03125 L 124.4375 61.636719 L 132.007813 61.636719 L 132.007813 43.851563 C 132.007813 40.960938 131.925781 37.980469 130.109375 35.582031 Z M 90.195313 35.730469 L 90.195313 33.023438 L 83.164063 33.023438 L 83.164063 61.636719 L 90.734375 61.636719 L 90.734375 52.800781 C 90.734375 47.929688 90.945313 44.734375 91.367188 43.207031 C 91.789063 41.679688 92.367188 40.625 93.105469 40.039063 C 93.839844 39.457031 94.738281 39.164063 95.800781 39.164063 C 96.894531 39.164063 98.078125 39.578125 99.355469 40.402344 L 101.699219 33.800781 C 100.101563 32.851563 98.441406 32.375 96.714844 32.375 C 94.195313 32.375 91.761719 33.804688 90.195313 35.730469 Z M 64.632813 32.375 C 61.832031 32.375 59.292969 32.992188 57.023438 34.234375 C 54.75 35.472656 52.992188 37.269531 51.753906 39.621094 C 50.515625 41.976563 49.894531 44.410156 49.894531 46.925781 C 49.894531 50.210938 50.515625 53 51.753906 55.289063 C 52.992188 57.582031 54.800781 59.320313 57.183594 60.503906 C 59.5625 61.6875 62.066406 62.28125 64.6875 62.28125 C 68.925781 62.28125 72.441406 60.859375 75.234375 58.011719 C 78.03125 55.164063 79.425781 51.578125 79.425781 47.246094 C 79.425781 42.953125 78.042969 39.402344 75.277344 36.589844 C 72.511719 33.78125 68.960938 32.375 64.632813 32.375 Z M 69.632813 53.847656 C 68.292969 55.359375 66.636719 56.113281 64.660156 56.113281 C 62.683594 56.113281 61.023438 55.359375 59.675781 53.847656 C 58.328125 52.339844 57.65625 50.164063 57.65625 47.328125 C 57.65625 44.492188 58.328125 42.316406 59.675781 40.808594 C 61.023438 39.300781 62.683594 38.542969 64.660156 38.542969 C 66.636719 38.542969 68.292969 39.300781 69.632813 40.808594 C 70.96875 42.316406 71.640625 44.472656 71.640625 47.273438 C 71.640625 50.148438 70.96875 52.339844 69.632813 53.847656 Z M 30.8125 22.136719 L 18.015625 22.136719 L 18.015625 61.636719 L 25.988281 61.636719 L 25.988281 46.734375 L 31.1875 46.734375 C 34.800781 46.734375 37.558594 46.546875 39.460938 46.167969 C 40.863281 45.863281 42.242188 45.238281 43.597656 44.296875 C 44.953125 43.355469 46.070313 42.058594 46.953125 40.402344 C 47.832031 38.753906 48.273438 36.710938 48.273438 34.285156 C 48.273438 31.144531 47.507813 28.578125 45.984375 26.59375 C 42.171875 21.644531 36.46875 22.136719 30.8125 22.136719 Z M 39.152344 37.46875 C 38.550781 38.347656 37.71875 38.996094 36.660156 39.40625 C 35.601563 39.820313 33.496094 40.027344 30.355469 40.027344 L 25.988281 40.027344 L 25.988281 28.816406 L 29.84375 28.816406 C 32.71875 28.816406 34.628906 28.90625 35.582031 29.085938 C 36.875 29.320313 37.945313 29.90625 38.789063 30.839844 C 39.632813 31.773438 40.054688 32.957031 40.054688 34.394531 C 40.054688 35.5625 39.753906 36.585938 39.152344 37.46875 "/>
</g>
</svg>
